<svg preserveAspectRatio="none" width="100%" height="100%" overflow="visible" style="display: block;" viewBox="0 0 16.1378 16.0002" fill="none" xmlns="http://www.w3.org/2000/svg">
<path id="Vector" fill-rule="evenodd" clip-rule="evenodd" d="M8.07288 4.54049e-07C6.15605 -0.000647508 4.30158 0.692241 2.8415 1.95461C1.38141 3.21698 0.411043 4.9664 0.104134 6.88965C-0.202775 8.81291 0.173814 10.7844 1.16648 12.4512C2.15914 14.118 3.70305 15.3712 5.5218 15.9864C5.9227 16.0625 6.07237 15.8085 6.07237 15.5911C6.07237 15.3955 6.06569 14.7503 6.06168 14.0644C3.81662 14.5601 3.34356 13.0972 3.34356 13.0972C2.97606 12.1464 2.44687 11.8964 2.44687 11.8964C1.71456 11.387 2.50166 11.3979 2.50166 11.3979C3.31282 11.4563 3.73912 12.2428 3.73912 12.2428C4.4594 13.4966 5.62737 13.1352 6.08707 12.922C6.16057 12.3922 6.36904 12.0309 6.60023 11.8258C4.81354 11.6207 2.92261 10.9171 2.92261 7.77383C2.91062 6.95744 3.20882 6.16778 3.75515 5.56923C3.67096 5.36276 3.39434 4.52874 3.83266 3.39587C3.83266 3.39587 4.51019 3.17582 6.05233 4.23669C7.37553 3.86902 8.77156 3.86902 10.0948 4.23669C11.6289 3.18126 12.3118 3.39587 12.3118 3.39587C12.7501 4.52602 12.4748 5.36005 12.3906 5.56923C12.9354 6.16745 13.2326 6.956 13.2205 7.77112C13.2205 10.9225 11.3336 11.6152 9.53617 11.819C9.82482 12.073 10.0827 12.5729 10.0827 13.3376C10.0827 14.4352 10.0747 15.3195 10.0747 15.5884C10.0747 15.8071 10.219 16.0625 10.628 15.9823C12.4441 15.3648 13.9849 14.1108 14.9752 12.4447C15.9654 10.7785 16.3404 8.8087 16.0332 6.88731C15.7261 4.96593 14.7567 3.2182 13.2984 1.95648C11.8401 0.694756 9.98792 0.00128315 8.07288 4.54049e-07V4.54049e-07Z" fill="var(--fill-0, white)"/>
</svg>
