<svg preserveAspectRatio="none" width="100%" height="100%" overflow="visible" style="display: block;" viewBox="0 0 16 16" fill="none" xmlns="http://www.w3.org/2000/svg">
<g id="Group">
<path id="Vector" d="M10.1735 14.8333H5.82683C2.55349 14.8333 1.15349 13.4333 1.15349 10.16V10.0733C1.15349 7.11333 2.32016 5.68666 4.93349 5.44C5.20016 5.42 5.45349 5.62 5.48016 5.89333C5.50683 6.16666 5.30683 6.41333 5.02683 6.44C2.93349 6.63333 2.15349 7.62 2.15349 10.08V10.1667C2.15349 12.88 3.11349 13.84 5.82683 13.84H10.1735C12.8868 13.84 13.8468 12.88 13.8468 10.1667V10.08C13.8468 7.60666 13.0535 6.62 10.9202 6.44C10.6468 6.41333 10.4402 6.17333 10.4668 5.9C10.4935 5.62666 10.7268 5.42 11.0068 5.44666C13.6602 5.67333 14.8468 7.10666 14.8468 10.0867V10.1733C14.8468 13.4333 13.4468 14.8333 10.1735 14.8333Z" fill="var(--fill-0, #ED1717)"/>
<path id="Vector_2" d="M8.00034 10.5003C7.727 10.5003 7.50034 10.2736 7.50034 10.0003V2.41359C7.50034 2.14025 7.727 1.91359 8.00034 1.91359C8.27367 1.91359 8.50034 2.14025 8.50034 2.41359V10.0003C8.50034 10.2736 8.27367 10.5003 8.00034 10.5003Z" fill="var(--fill-0, #ED1717)"/>
<path id="Vector_3" d="M10.2334 4.40019C10.1067 4.40019 9.98007 4.35352 9.88007 4.25352L8.00007 2.37352L6.12007 4.25352C5.92673 4.44686 5.60673 4.44686 5.4134 4.25352C5.22007 4.06019 5.22007 3.74019 5.4134 3.54686L7.64673 1.31352C7.84007 1.12019 8.16007 1.12019 8.3534 1.31352L10.5867 3.54686C10.7801 3.74019 10.7801 4.06019 10.5867 4.25352C10.4934 4.35352 10.3601 4.40019 10.2334 4.40019Z" fill="var(--fill-0, #ED1717)"/>
<path id="Vector_4" opacity="0" d="M16 0H0V16H16V0Z" fill="var(--fill-0, #ED1717)"/>
</g>
</svg>
