<svg preserveAspectRatio="none" width="100%" height="100%" overflow="visible" style="display: block;" viewBox="0 0 14.6667 13.2648" fill="none" xmlns="http://www.w3.org/2000/svg">
<g id="Vector">
<path d="M9.33154 4.5981H13.3333C14.0667 4.5981 14.6667 5.1981 14.6667 5.93143V7.26477C14.6667 7.4381 14.6333 7.5981 14.5733 7.75143L12.56 12.4514C12.36 12.9314 11.8867 13.2648 11.3333 13.2648H5.33333C4.6 13.2648 4 12.6648 4 11.9314V5.26477C4 4.8981 4.14667 4.56477 4.39333 4.32477L8.66271 0.0489051C8.72756 -0.0160485 8.83273 -0.0163376 8.89794 0.0482583L9.48667 0.631433C9.66667 0.811433 9.78 1.06477 9.78 1.3381L9.76 1.55143L9.16836 4.39751C9.14685 4.50099 9.22585 4.5981 9.33154 4.5981Z" fill="var(--fill-0, #B3B3B3)"/>
<path d="M2.5 5.26477H0.166667C0.0746192 5.26477 0 5.33939 0 5.43143V13.0981C0 13.1901 0.0746192 13.2648 0.166667 13.2648H2.5C2.59205 13.2648 2.66667 13.1901 2.66667 13.0981V5.43143C2.66667 5.33939 2.59205 5.26477 2.5 5.26477Z" fill="var(--fill-0, #B3B3B3)"/>
</g>
</svg>
